<?xml version="1.0" encoding="UTF-8" standalone="no"?>
<!-- Created with Inkscape (http://www.inkscape.org/) -->

<svg
   xmlns:dc="http://purl.org/dc/elements/1.1/"
   xmlns:cc="http://creativecommons.org/ns#"
   xmlns:rdf="http://www.w3.org/1999/02/22-rdf-syntax-ns#"
   xmlns:svg="http://www.w3.org/2000/svg"
   xmlns="http://www.w3.org/2000/svg"
   xmlns:sodipodi="http://sodipodi.sourceforge.net/DTD/sodipodi-0.dtd"
   xmlns:inkscape="http://www.inkscape.org/namespaces/inkscape"
   inkscape:version="0.47 r22583"
   version="1.1"
   id="svg2"
   height="489.13614"
   width="435.17685"
   sodipodi:docname="iPhotoViewerLogo.svg">
  <sodipodi:namedview
     id="base"
     pagecolor="#ffffff"
     bordercolor="#666666"
     borderopacity="1.0"
     inkscape:pageopacity="0.0"
     inkscape:pageshadow="2"
     inkscape:zoom="0.54"
     inkscape:cx="-144.69482"
     inkscape:cy="351.29042"
     inkscape:document-units="px"
     inkscape:current-layer="layer1"
     showgrid="false"
     inkscape:window-width="1280"
     inkscape:window-height="727"
     inkscape:window-x="0"
     inkscape:window-y="25"
     inkscape:window-maximized="1" />
  <defs
     id="defs4">
    <inkscape:perspective
       id="perspective10"
       inkscape:persp3d-origin="154.47598 : -200.00366 : 1"
       inkscape:vp_z="526.52322 : -24.60996 : 1"
       inkscape:vp_y="0 : 1000 : 0"
       inkscape:vp_x="-217.57126 : -24.60996 : 1"
       sodipodi:type="inkscape:persp3d" />
  </defs>
  <metadata
     id="metadata7">
    <rdf:RDF>
      <cc:Work
         rdf:about="">
        <dc:format>image/svg+xml</dc:format>
        <dc:type
           rdf:resource="http://purl.org/dc/dcmitype/StillImage" />
        <dc:title></dc:title>
      </cc:Work>
    </rdf:RDF>
  </metadata>
  <g
     id="layer1"
     inkscape:groupmode="layer"
     inkscape:label="Ebene 1"
     transform="translate(-220.10548,-12.310606)">
    <g
       id="g2833"
       inkscape:export-xdpi="50"
       inkscape:export-ydpi="50">
      <g
         sodipodi:type="inkscape:box3d"
         style="fill:#2b0000;fill-opacity:0.72932332;stroke:#ffff00;stroke-width:10;stroke-linecap:butt;stroke-linejoin:miter;stroke-miterlimit:4;stroke-opacity:1;stroke-dasharray:10, 10;stroke-dashoffset:0"
         id="g2816"
         inkscape:perspectiveID="#perspective10"
         inkscape:corner0="0.67158708 : 0.50173598 : 0 : 1"
         inkscape:corner7="-0.35853606 : 0.23824577 : 0.45107898 : 1">
        <path
           sodipodi:type="inkscape:box3dside"
           id="path2828"
           style="fill:#2b0000;fill-opacity:0.72932332;fill-rule:evenodd;stroke:#ffff00;stroke-opacity:1"
           inkscape:box3dsidetype="11"
           d="m 335.93222,372.31501 314.35012,-144.95804 0,241.1715 -314.35012,27.91827 z" />
        <path
           sodipodi:type="inkscape:box3dside"
           id="path2818"
           style="fill:#2b0000;fill-opacity:0.72932332;fill-rule:evenodd;stroke:#ffff00;stroke-opacity:1"
           inkscape:box3dsidetype="6"
           d="m 225.10548,330.8277 0,157.62877 110.82674,7.99027 0,-124.13173 z" />
        <path
           sodipodi:type="inkscape:box3dside"
           id="path2820"
           style="fill:#2b0000;fill-opacity:0.72932332;fill-rule:evenodd;stroke:#ffff00;stroke-opacity:1"
           inkscape:box3dsidetype="5"
           d="M 225.10548,330.8277 582.53134,17.310602 650.28234,227.35697 335.93222,372.31501 z" />
        <path
           sodipodi:type="inkscape:box3dside"
           id="path2826"
           style="fill:#2b0000;fill-opacity:0.72932332;fill-rule:evenodd;stroke:#ffff00;stroke-opacity:1"
           inkscape:box3dsidetype="13"
           d="m 225.10548,488.45647 357.42586,-60.382 67.751,40.454 -314.35012,27.91827 z" />
        <path
           sodipodi:type="inkscape:box3dside"
           id="path2824"
           style="fill:#2b0000;fill-opacity:0.72932332;fill-rule:evenodd;stroke:#ffff00;stroke-opacity:1"
           inkscape:box3dsidetype="14"
           d="m 582.53134,17.310602 0,410.763868 67.751,40.454 0,-241.1715 z" />
        <path
           sodipodi:type="inkscape:box3dside"
           id="path2822"
           style="fill:#2b0000;fill-opacity:0.72932332;fill-rule:evenodd;stroke:#ffff00;stroke-opacity:1"
           inkscape:box3dsidetype="3"
           d="m 225.10548,330.8277 357.42586,-313.517098 0,410.763868 -357.42586,60.382 z" />
      </g>
      <g
         style="font-size:40px;font-style:normal;font-weight:normal;fill:#ffffff;fill-opacity:1;stroke:none;font-family:Bitstream Vera Sans"
         id="flowRoot3602">
        <path
           d="m 232.98939,329.30092 c 0,0 0.30622,24.87541 0.30622,24.87541 0,0 -2.30285,1.74337 -2.30285,1.74337 0,0 -0.30504,-24.61251 -0.30504,-24.61251 0,0 2.30167,-2.00627 2.30167,-2.00627 m 0.81603,44.38234 c 0,0 0.98727,80.26518 0.98727,80.26518 0,0 2.38211,-0.71519 2.38211,-0.71519 0.4839,-0.14522 0.8421,0.86779 1.07329,3.04227 0.23722,2.09918 0.37756,4.92435 0.42073,8.47204 0.0422,3.46977 -0.0288,6.34506 -0.21258,8.62322 -0.17783,2.1953 -0.50946,3.33853 -0.99357,3.43265 0,0 -6.62286,1.28756 -6.62286,1.28756 -0.45392,0.0883 -0.7908,-0.88546 -1.01179,-2.91831 -0.21548,-2.1048 -0.34433,-4.8561 -0.38684,-8.25706 -0.0416,-3.32785 0.0188,-6.05368 0.18155,-8.17985 0.16819,-2.20617 0.47854,-3.37877 0.93225,-3.51504 0,0 2.29111,-0.68786 2.29111,-0.68786 0,0 -0.69659,-56.3082 -0.69659,-56.3082 0,0 -1.54024,0.8613 -1.54024,0.8613 -0.45015,0.25183 -0.78577,-0.61402 -1.00797,-2.5943 -0.22276,-2.05142 -0.35541,-4.79165 -0.39822,-8.22387 -0.0419,-3.35824 0.0188,-6.14359 0.18231,-8.35857 0.16902,-2.29789 0.48097,-3.60011 0.93705,-3.90424 0,0 3.48299,-2.32173 3.48299,-2.32173"
           style="font-size:44px;font-variant:normal;font-weight:bold;font-stretch:normal;fill:#ffffff;font-family:Courier New;-inkscape-font-specification:Courier New Bold"
           id="path3640" />
        <path
           d="m 244.59082,425.77176 c 0,0 0.30004,25.14489 0.30004,25.14489 0,0 2.18909,-0.65723 2.18909,-0.65723 0.52785,-0.15842 0.91757,0.89503 1.16771,3.16388 0.25681,2.19026 0.40726,5.14046 0.45101,8.84683 0.0428,3.6249 -0.0374,6.6298 -0.24006,9.01177 -0.19605,2.29514 -0.55883,3.49244 -1.08686,3.59509 0,0 -4.64725,0.90348 -4.64725,0.90348 -0.50497,0.0982 -0.87845,-0.92514 -1.12178,-3.0668 -0.23709,-2.21741 -0.37714,-5.11766 -0.42043,-8.70424 -0.0424,-3.50953 0.0314,-6.38662 0.2215,-8.63402 0.18959,-2.33026 0.5327,-3.57171 1.03066,-3.72127 0,0 0.32861,-0.0987 0.32861,-0.0987 0,0 -1.14013,-94.93121 -1.14013,-94.93121 0,0 -0.3281,0.23577 -0.3281,0.23577 -0.50397,0.36228 -0.87685,-0.48209 -1.11998,-2.52921 -0.2369,-2.12697 -0.37704,-4.99754 -0.42071,-8.61512 -0.0437,-3.61825 0.0257,-6.61316 0.2084,-8.98771 0.1889,-2.46351 0.53454,-3.90491 1.03831,-4.32181 0,0 4.93691,-3.96129 4.93691,-3.96129 1.491,-1.2325 2.73864,2.44801 3.73358,11.09764 1.00821,8.62183 1.59336,19.67746 1.75006,33.11212 0.0864,7.41252 0.0157,14.49484 -0.21153,21.23457 -0.17186,5.04244 -0.49865,10.10844 -0.97889,15.18788 -0.47157,4.97015 -0.96879,8.78598 -1.49143,11.45568 -0.51387,2.57312 -1.21465,4.03721 -2.09913,4.39945 0,0 -2.0496,0.83957 -2.0496,0.83957 m -0.29204,-24.47385 c 0,0 2.00623,-1.03595 2.00623,-1.03595 0.9554,-0.49323 1.6881,-3.31519 2.19415,-8.48273 0.51497,-5.27967 0.73277,-11.39568 0.65134,-18.32971 -0.069,-5.87607 -0.3625,-10.86331 -0.87899,-14.94872 -0.50741,-4.07543 -1.18468,-5.80288 -2.02858,-5.19656 0,0 -2.49545,1.79329 -2.49545,1.79329 0,0 0.5513,46.20038 0.5513,46.20038"
           style="font-size:44px;font-variant:normal;font-weight:bold;font-stretch:normal;fill:#ffffff;font-family:Courier New;-inkscape-font-specification:Courier New Bold"
           id="path3642" />
        <path
           d="m 255.84524,309.37844 c 0,0 0.63466,55.29994 0.63466,55.29994 0.46063,-3.52531 0.93685,-6.2228 1.42874,-8.08703 0.50091,-1.96229 1.0172,-3.12715 1.54893,-3.48926 0.84596,-0.57578 1.62256,0.4534 2.32815,3.10086 0.70926,2.66148 1.32393,7.22848 1.84243,13.70551 0.52734,6.40567 0.84894,14.73422 0.96349,24.96481 0,0 0.55935,49.96065 0.55935,49.96065 0.64616,-0.19394 1.0777,0.32909 1.2924,1.57126 0.43127,2.57688 0.67497,6.34645 0.73012,11.30153 0.0435,3.91075 -0.0507,7.15375 -0.28212,9.72573 -0.23193,2.47958 -0.65579,3.77721 -1.26971,3.89656 0,0 -2.87178,0.5583 -2.87178,0.5583 -0.58906,0.11453 -1.02445,-0.99233 -1.30784,-3.31683 -0.27585,-2.40667 -0.4357,-5.55763 -0.47997,-9.45699 -0.0539,-4.74856 0.0959,-8.49234 0.45026,-11.23685 0.18517,-1.42057 0.58817,-2.18238 1.21109,-2.28386 0,0 -0.53791,-47.65428 -0.53791,-47.65428 -0.0765,-6.77822 -0.27588,-11.46358 -0.59755,-14.04949 -0.42011,-3.4721 -0.99841,-4.99317 -1.7325,-4.57242 -0.5398,0.30959 -1.00501,1.72875 -1.39636,4.25171 -0.38309,2.42536 -0.87934,7.53302 -1.48691,15.29292 0,0 0.55423,48.29186 0.55423,48.29186 0.61479,-0.18452 1.02055,0.32612 1.21513,1.53393 0.41453,2.49823 0.64966,6.15157 0.70447,10.95315 0.0432,3.78963 -0.0472,6.93224 -0.2709,9.42462 -0.21634,2.4013 -0.61372,3.65626 -1.19044,3.76839 0,0 -2.6875,0.52248 -2.6875,0.52248 -0.56145,0.10915 -0.97534,-0.96581 -1.24327,-3.22137 -0.26087,-2.33531 -0.41311,-5.39168 -0.45707,-9.17298 -0.0535,-4.60474 0.0889,-8.23458 0.42813,-10.89481 0.16578,-1.37349 0.54432,-2.10853 1.13761,-2.20371 0,0 -1.28014,-110.71301 -1.28014,-110.71301 0,0 -0.39848,0.30418 -0.39848,0.30418 -0.55942,0.42717 -0.97198,-0.43122 -1.23928,-2.57069 -0.26029,-2.22412 -0.41244,-5.24174 -0.45682,-9.0566 -0.0434,-3.73263 0.0373,-6.85926 0.24253,-9.38311 0.21221,-2.61863 0.59713,-4.17303 1.15637,-4.66067 0,0 2.75846,-2.40443 2.75846,-2.40443"
           style="font-size:44px;font-variant:normal;font-weight:bold;font-stretch:normal;fill:#ffffff;font-family:Courier New;-inkscape-font-specification:Courier New Bold"
           id="path3644" />
        <path
           d="m 282.43894,407.33754 c 0.11533,10.9282 -0.0847,21.63001 -0.59807,32.06975 -0.50224,10.28955 -1.32555,18.5811 -2.46382,24.87035 -1.11943,6.1378 -2.31426,9.29861 -3.5831,9.52373 -1.2478,0.22138 -2.46206,-2.41254 -3.64433,-7.86639 -1.17356,-5.49727 -2.09835,-13.03916 -2.77965,-22.63205 -0.67872,-9.55662 -1.07584,-19.62292 -1.19331,-30.23192 -0.11951,-10.79262 0.052,-21.52023 0.5166,-32.21901 0.46605,-10.84405 1.21394,-19.64116 2.24879,-26.39341 1.05303,-6.81928 2.19779,-10.67086 3.43584,-11.51381 1.25896,-0.85694 2.51432,1.51105 3.76486,7.14596 1.26953,5.58554 2.27452,13.66199 3.00886,24.22358 0.73616,10.50989 1.166,21.53016 1.28733,33.02322 m -2.87696,1.34807 c -0.0968,-9.07628 -0.51406,-17.26486 -1.24943,-24.53739 -0.99812,-9.75681 -2.21173,-14.20244 -3.63365,-13.38736 -1.23824,0.71003 -2.21916,5.28304 -2.94779,13.6805 -0.72364,8.34014 -1.02664,17.6779 -0.91277,28.05031 0.0934,8.50494 0.58858,16.32875 1.48962,23.50656 0.90533,7.13067 1.96621,10.53996 3.18722,10.19421 1.24154,-0.35156 2.25391,-4.41281 3.03234,-12.22247 0.78295,-7.95631 1.12918,-16.39711 1.03446,-25.28436"
           style="font-size:44px;font-variant:normal;font-weight:bold;font-stretch:normal;fill:#ffffff;font-family:Courier New;-inkscape-font-specification:Courier New Bold"
           id="path3646" />
        <path
           d="m 291.52532,365.02181 c 0,0 0.60424,59.17941 0.60424,59.17941 0.0645,6.32057 0.24403,10.44268 0.53894,12.37108 0.46011,3.03887 1.24358,4.40497 2.35601,4.08997 1.63298,-0.4624 3.12537,-4.16739 4.47338,-11.16521 0.52032,-2.73306 0.9371,-4.15536 1.24931,-4.2588 0.43171,-0.14301 0.81977,1.21825 1.16373,4.08823 0.35548,2.87239 0.55449,6.44375 0.59648,10.7086 0.039,3.96618 -0.1016,7.43004 -0.42118,10.38662 -0.48525,4.76836 -1.48839,9.28197 -2.9982,13.51961 -1.48366,4.09187 -2.73598,6.21264 -3.76347,6.39494 -1.96138,0.34798 -3.45704,-3.29851 -4.50241,-10.89929 -1.02976,-7.64956 -1.60079,-17.13144 -1.71802,-28.48871 0,0 -0.66273,-64.20193 -0.66273,-64.20193 0,0 -1.09645,0.61313 -1.09645,0.61313 -0.72612,0.40618 -1.25755,-0.6247 -1.59666,-3.08714 -0.32966,-2.55687 -0.51684,-5.99782 -0.56202,-10.32775 -0.0442,-4.23687 0.0703,-7.77099 0.34391,-10.60643 0.28308,-2.94295 0.78649,-4.65828 1.51256,-5.14241 0,0 1.0964,-0.73085 1.0964,-0.73085 0,0 -0.27332,-26.47802 -0.27332,-26.47802 -0.073,-7.06917 0.0141,-12.19911 0.26177,-15.39235 0.25717,-3.30427 0.61566,-5.15146 1.0762,-5.53671 0.45201,-0.37784 0.83554,0.85819 1.1499,3.71285 0.32406,2.75537 0.52285,7.71116 0.59585,14.86054 0,0 0.27342,26.77805 0.27342,26.77805 0,0 5.88781,-3.92477 5.88781,-3.92477 0.78483,-0.52302 1.35855,0.53853 1.71848,3.19104 0.37041,2.55246 0.57854,6.11149 0.62378,10.67175 0.0442,4.45984 -0.0912,8.226 -0.40554,11.29346 -0.30389,2.95496 -0.84957,4.64992 -1.63437,5.08864 0,0 -5.8878,3.29245 -5.8878,3.29245"
           style="font-size:44px;font-variant:normal;font-weight:bold;font-stretch:normal;fill:#ffffff;font-family:Courier New;-inkscape-font-specification:Courier New Bold"
           id="path3648" />
        <path
           d="m 322.49761,390.49136 c 0.11432,12.56535 -0.18658,24.88704 -0.8993,36.9178 -0.69701,11.8481 -1.8091,21.40527 -3.32699,28.66568 -1.49055,7.07612 -3.06786,10.73452 -4.72998,11.02941 -1.63231,0.2896 -3.20918,-2.68637 -4.73309,-8.88168 -1.51063,-6.23796 -2.68939,-14.81302 -3.54404,-25.73336 -0.85099,-10.87328 -1.33423,-22.33936 -1.45257,-34.44111 -0.12039,-12.31253 0.13704,-24.57554 0.77526,-36.83632 0.6411,-12.43614 1.64291,-22.56844 3.01304,-30.40029 1.39583,-7.92067 2.90352,-12.45978 4.5253,-13.56398 1.65145,-1.12411 3.28961,1.45532 4.91253,7.7938 1.65011,6.28764 2.94534,15.47569 3.87645,27.55732 0.93424,12.02888 1.46311,24.67629 1.58339,37.89273 m -3.79375,1.75396 c -0.0963,-10.42029 -0.617,-19.79547 -1.55858,-28.08838 -1.27742,-11.11628 -2.85403,-16.10632 -4.71886,-15.03733 -1.62156,0.92981 -2.91778,6.25828 -3.89605,15.93556 -0.97063,9.60179 -1.39585,20.30353 -1.28144,32.15395 0.0938,9.71592 0.71327,18.62957 1.8642,26.78658 1.15763,8.10964 2.53185,11.96036 4.1296,11.50793 1.62681,-0.46066 2.96774,-5.16519 4.01582,-14.16423 1.0556,-9.17696 1.53954,-18.89178 1.44531,-29.09408"
           style="font-size:44px;font-variant:normal;font-weight:bold;font-stretch:normal;fill:#ffffff;font-family:Courier New;-inkscape-font-specification:Courier New Bold"
           id="path3650" />
        <path
           d="m 336.29665,407.78169 c 0,0 5.17139,-122.90819 5.17139,-122.90819 0,0 -0.99553,0.71541 -0.99553,0.71541 -1.03848,0.74643 -1.79164,-0.3072 -2.26354,-3.15197 -0.45786,-2.96054 -0.70849,-7.03561 -0.75275,-12.23202 -0.0443,-5.19793 0.13463,-9.55251 0.53773,-13.07003 0.4172,-3.65218 1.14321,-5.91007 2.18206,-6.76968 0,0 5.91607,-4.71832 5.91607,-4.71832 1.08378,-0.8958 1.8703,0.10122 2.35517,3.0009 0.50087,2.89551 0.77364,7.0415 0.81729,12.43094 0.0521,6.44168 -0.26296,11.79711 -0.94285,16.05425 -0.32411,2.11107 -1.00763,3.53969 -2.04622,4.28589 0,0 -7.51677,175.69154 -7.51677,175.69154 0,0 -4.02279,0.78207 -4.02279,0.78207 0,0 -9.71407,-161.20032 -9.71407,-161.20032 -0.91726,0.65931 -1.52723,0.22897 -1.83358,-1.28618 -0.63527,-2.89558 -0.97936,-7.35049 -1.03403,-13.37457 -0.0449,-4.94996 0.11997,-9.09408 0.4955,-12.43825 0.36299,-3.45093 1.01381,-5.56798 1.95601,-6.34763 0,0 5.40004,-4.29995 5.40004,-4.29995 0.96791,-0.80002 1.6746,0.18272 2.11638,2.95686 0.45624,2.77041 0.70704,6.72064 0.75157,11.84429 0.0445,5.12218 -0.1275,9.45113 -0.51512,12.98076 -0.3875,3.40909 -1.07359,5.46405 -2.05453,6.16882 0,0 -0.94863,0.6817 -0.94863,0.6817 0,0 6.9412,114.20383 6.9412,114.20383"
           style="font-size:44px;font-variant:normal;font-weight:bold;font-stretch:normal;fill:#ffffff;font-family:Courier New;-inkscape-font-specification:Courier New Bold"
           id="path3652" />
        <path
           d="m 363.9069,215.18566 c 0,0 0.30127,39.88258 0.30127,39.88258 0,0 -5.83457,4.4171 -5.83457,4.4171 0,0 -0.30448,-39.21114 -0.30448,-39.21114 0,0 5.83778,-5.08854 5.83778,-5.08854 m 1.22134,70.95897 c 0,0 0.96662,128.38276 0.96662,128.38276 0,0 6.09495,-1.8299 6.09495,-1.8299 1.24774,-0.37452 2.15127,1.15639 2.70517,4.60166 0.57153,3.3255 0.87844,7.8526 0.91955,13.5725 0.0401,5.5934 -0.20062,10.25049 -0.72097,13.96406 -0.50262,3.57428 -1.38008,5.47901 -2.62707,5.72144 0,0 -16.73775,3.25401 -16.73775,3.25401 -1.12567,0.21884 -1.94038,-1.2569 -2.44868,-4.41996 -0.49291,-3.27447 -0.76036,-7.5818 -0.80329,-12.92969 -0.042,-5.23367 0.1564,-9.54432 0.59627,-12.93799 0.45534,-3.52508 1.24386,-5.45993 2.37006,-5.79814 0,0 5.72883,-1.71997 5.72883,-1.71997 0,0 -0.69019,-89.54392 -0.69019,-89.54392 0,0 -3.86818,2.16308 -3.86818,2.16308 -1.12449,0.62898 -1.94174,-0.57672 -2.45629,-3.60801 -0.51414,-3.14103 -0.79229,-7.42038 -0.83548,-12.8458 -0.0423,-5.30922 0.15883,-9.76829 0.60436,-13.38377 0.4612,-3.75468 1.25969,-6.01468 2.40007,-6.77502 0,0 8.80202,-5.86734 8.80202,-5.86734"
           style="font-size:44px;font-variant:normal;font-weight:bold;font-stretch:normal;fill:#ffffff;font-family:Courier New;-inkscape-font-specification:Courier New Bold"
           id="path3654" />
        <path
           d="m 411.0013,371.21427 c 0,0 -24.4711,9.18533 -24.4711,9.18533 0.65302,10.07899 1.7433,18.03947 3.2783,23.89641 1.5652,5.89577 3.65799,8.49081 6.29663,7.74364 2.19157,-0.62058 5.12283,-4.72148 8.82922,-12.41011 1.55126,-3.18754 2.63588,-4.8882 3.24565,-5.08273 0.83636,-0.26658 1.55465,1.48502 2.15339,5.26317 0.60025,3.78818 0.91871,8.69372 0.95418,14.70712 0.0322,5.46457 -0.25,10.18222 -0.84501,14.14448 -0.79055,5.21697 -2.74713,10.44795 -5.83458,15.6469 -3.03887,4.9827 -5.92733,7.69041 -8.67204,8.17737 -4.63121,0.82167 -8.31993,-7.44089 -11.12213,-24.60296 -2.74807,-16.94434 -4.19861,-38.16215 -4.37838,-63.85267 -0.19164,-27.38804 1.06058,-50.47271 3.79083,-69.44906 2.79389,-19.43879 6.143,-30.59967 10.07207,-33.27465 2.4009,-1.63427 4.64552,-0.19637 6.72683,4.36391 2.12254,4.59458 3.72588,10.05408 4.7973,16.36522 1.52289,9.23517 2.81398,21.07387 3.86858,35.51073 0.72173,10.10657 1.12381,22.03993 1.20477,35.7702 0,0 0.10549,17.8977 0.10549,17.8977 m -7.17115,-38.87357 c -1.00991,-11.41028 -2.28377,-19.59314 -3.81613,-24.555 -1.52211,-5.05908 -3.29435,-6.99274 -5.30902,-5.83789 -1.97471,1.13232 -3.64811,4.9844 -5.02726,11.52608 -1.36916,6.36036 -2.45157,15.44917 -3.25199,27.25492 0,0 17.4044,-8.38811 17.4044,-8.38811"
           style="font-size:44px;font-variant:normal;font-weight:bold;font-stretch:normal;fill:#ffffff;font-family:Courier New;-inkscape-font-specification:Courier New Bold"
           id="path3656" />
        <path
           d="m 434.45274,356.29989 c 0,0 -4.45899,83.07331 -4.45899,83.07331 0,0 -6.44539,1.25306 -6.44539,1.25306 0,0 -6.40925,-145.84748 -6.40925,-145.84748 -1.19699,0.24971 -2.11128,-1.40563 -2.74683,-4.95584 -0.61355,-3.69148 -0.937,-8.52134 -0.9716,-14.49873 -0.0362,-6.25784 0.26065,-11.54521 0.89226,-15.87143 0.65427,-4.49503 1.76997,-7.27389 3.35457,-8.33037 0,0 6.2546,-4.16926 6.2546,-4.16926 1.6471,-1.09774 2.83477,0.20555 3.55473,3.92505 0.74402,3.57255 1.13434,8.68578 1.16914,15.32872 0.0347,6.64009 -0.34311,12.50449 -1.13107,17.57948 -0.5888,3.79232 -1.76598,6.17799 -3.52164,7.15955 0,0 2.97614,68.27159 2.97614,68.27159 0,0 3.93438,-73.87988 3.93438,-73.87988 0,0 6.34211,-3.57301 6.34211,-3.57301 0,0 4.93023,71.52399 4.93023,71.52399 0,0 2.56665,-73.94578 2.56665,-73.94578 -1.84837,1.03381 -3.06107,0.59384 -3.64888,-1.30962 -1.17191,-3.94017 -1.77611,-10.12095 -1.81706,-18.56142 -0.0324,-6.66672 0.31125,-12.31404 1.03293,-16.95262 0.74772,-4.82059 2.01636,-7.83379 3.815,-9.03296 0,0 7.18404,-4.78882 7.18404,-4.78882 1.87496,-1.24961 3.22455,0.0867 4.03872,4.02663 0.84186,3.78269 1.27891,9.22828 1.30894,16.32435 0.0267,6.32201 -0.31165,11.92805 -1.01305,16.80716 -0.67403,4.69423 -1.69789,7.72795 -3.06683,9.10664 0,0 -5.56408,161.10236 -5.56408,161.10236 0,0 -6.87224,1.33604 -6.87224,1.33604 0,0 -5.68753,-81.10071 -5.68753,-81.10071"
           style="font-size:44px;font-variant:normal;font-weight:bold;font-stretch:normal;fill:#ffffff;font-family:Courier New;-inkscape-font-specification:Courier New Bold"
           id="path3658" />
        <path
           d="m 505.23003,335.8451 c 0,0 -36.92291,13.85918 -36.92291,13.85918 0.91551,12.24951 2.49339,21.87888 4.74703,28.90964 2.30226,7.08757 5.41598,10.10274 9.37499,8.98168 3.2976,-0.93377 7.74033,-6.21376 13.395,-16.00645 2.37422,-4.07429 4.03381,-6.27479 4.96332,-6.57129 1.27602,-0.40676 2.36125,1.69527 3.25283,6.31901 0.89435,4.63889 1.35189,10.68797 1.37044,18.13282 0.0167,6.76473 -0.44235,12.62602 -1.37434,17.57079 -1.23688,6.50502 -4.24758,13.08957 -8.96576,19.68103 -4.62583,6.29811 -8.99542,9.77189 -13.12187,10.504 -6.93247,1.22996 -12.37884,-8.67625 -16.44291,-29.44072 -3.97369,-20.44423 -6.00186,-46.1477 -6.13125,-77.40291 -0.13799,-33.3342 1.83307,-61.649 5.976,-85.24048 4.25523,-24.25514 9.31025,-38.54308 15.20958,-42.5594 3.61847,-2.46311 6.99391,-1.11246 10.11318,4.12968 3.18896,5.28935 5.59134,11.75507 7.18357,19.37985 2.26467,11.1803 4.16381,25.64364 5.68869,43.38288 1.04301,12.43027 1.58696,27.17687 1.62929,44.19422 0,0 0.0551,22.17647 0.0551,22.17647 m -10.69134,-47.22168 c -1.46498,-13.95186 -3.34655,-23.86661 -5.63455,-29.75513 -2.26808,-6.00005 -4.92646,-8.10174 -7.96059,-6.36244 -2.96692,1.7012 -5.49163,6.68866 -7.58699,14.91848 -2.07574,7.99176 -3.73622,19.26811 -4.99004,33.81286 0,0 26.17217,-12.61377 26.17217,-12.61377"
           style="font-size:44px;font-variant:normal;font-weight:bold;font-stretch:normal;fill:#ffffff;font-family:Courier New;-inkscape-font-specification:Courier New Bold"
           id="path3660" />
        <path
           d="m 539.09946,170.17695 c 0,0 0.0442,35.21885 0.0442,35.21885 4.71017,-20.03804 8.48249,-33.99264 11.27118,-41.63506 2.8575,-7.75141 5.55493,-12.51508 8.08609,-14.23848 3.94044,-2.68227 7.81958,1.83293 11.63061,13.68694 2.62254,8.08355 3.94244,17.2377 3.94253,27.40428 -9e-5,8.59708 -0.63935,16.27781 -1.91307,23.0209 -1.22672,6.49399 -2.71189,10.19552 -4.45177,11.12378 -1.52861,0.81579 -3.12975,-1.97269 -4.80282,-8.33574 -1.6639,-6.32728 -3.14026,-9.1066 -4.43136,-8.36665 -1.67336,0.95963 -4.16051,7.47233 -7.43718,19.42594 -3.19733,11.78134 -7.14403,28.79057 -11.80271,50.81925 0,0 0.10569,84.21252 0.10569,84.21252 0,0 16.32069,-4.89999 16.32069,-4.89999 2.85795,-0.85791 4.90531,1.26072 6.12303,6.37836 1.26192,4.93844 1.89655,11.76995 1.89988,20.47468 0.003,8.51038 -0.62553,15.64181 -1.88129,21.37711 -1.2107,5.51125 -3.25129,8.5364 -6.10349,9.0909 0,0 -33.40582,6.49447 -33.40582,6.49447 -2.48603,0.48331 -4.25657,-1.59631 -5.32673,-6.2219 -1.03351,-4.78755 -1.55722,-11.13901 -1.57405,-19.0711 -0.0165,-7.76409 0.48059,-14.20556 1.49464,-19.33804 1.05142,-5.33872 2.81498,-8.38837 5.30533,-9.13618 0,0 6.26514,-1.88099 6.26514,-1.88099 0,0 -0.21946,-133.12873 -0.21946,-133.12873 0,0 -3.83505,2.14455 -3.83505,2.14455 -2.52511,1.41228 -4.32312,-0.0521 -5.40951,-4.36994 -1.04912,-4.49577 -1.58041,-10.77387 -1.59686,-18.85041 -0.0161,-7.90506 0.48919,-14.65306 1.51939,-20.25933 1.0682,-5.83008 2.85958,-9.59226 5.38915,-11.27869 0,0 14.79362,-9.8613 14.79362,-9.8613"
           style="font-size:44px;font-variant:normal;font-weight:bold;font-stretch:normal;fill:#ffffff;font-family:Courier New;-inkscape-font-specification:Courier New Bold"
           id="path3662" />
      </g>
    </g>
  </g>
</svg>
